<svg width="26" height="26" fill="none" xmlns="http://www.w3.org/2000/svg">
    <path d="m3.632 16.304-.73.171.73-.171zm0-6.608-.73-.171.73.171zm18.736 0-.73.172.73-.172zm0 6.608-.73-.172.73.172zm-6.064 6.064-.172-.73.172.73zm-6.608 0-.171.73.171-.73zm0-18.736-.171-.73.171.73zm6.608 0-.172.73.172-.73zm-11.942 12.5a13.717 13.717 0 0 1 0-6.264l-1.46-.343a15.217 15.217 0 0 0 0 6.95l1.46-.343zm17.276-6.264c.483 2.06.483 4.204 0 6.264l1.46.343a15.218 15.218 0 0 0 0-6.95l-1.46.343zm-5.506 11.77c-2.06.483-4.204.483-6.264 0l-.343 1.46c2.286.536 4.664.536 6.95 0l-.343-1.46zM9.868 4.361a13.717 13.717 0 0 1 6.264 0l.343-1.46a15.217 15.217 0 0 0-6.95 0l.343 1.46zm0 17.276a7.387 7.387 0 0 1-5.506-5.506l-1.46.343a8.887 8.887 0 0 0 6.623 6.623l.343-1.46zm6.607 1.46a8.887 8.887 0 0 0 6.623-6.623l-1.46-.343a7.387 7.387 0 0 1-5.506 5.505l.343 1.46zm-.343-18.736a7.387 7.387 0 0 1 5.505 5.506l1.46-.343a8.887 8.887 0 0 0-6.622-6.623l-.343 1.46zm-6.607-1.46a8.887 8.887 0 0 0-6.623 6.623l1.46.343a7.387 7.387 0 0 1 5.506-5.506l-.343-1.46z" fill="#fff"/>
    <path d="m3.632 16.304-.73.171.73-.171zm0-6.608-.73-.171.73.171zm18.736 0-.73.172.73-.172zm-.73 6.436a.75.75 0 0 0 1.46.343l-1.46-.343zM9.524 23.098a.75.75 0 1 0 .343-1.46l-.343 1.46zm.171-19.466-.171-.73.171.73zm6.608 0-.172.73.172-.73zm-11.942 12.5a13.717 13.717 0 0 1 0-6.264l-1.46-.343a15.217 15.217 0 0 0 0 6.95l1.46-.343zm17.276-6.264c.483 2.06.483 4.204 0 6.264l1.46.343a15.218 15.218 0 0 0 0-6.95l-1.46.343zM9.867 4.362a13.717 13.717 0 0 1 6.264 0l.343-1.46a15.217 15.217 0 0 0-6.95 0l.343 1.46zm0 17.276a7.387 7.387 0 0 1-5.506-5.506l-1.46.343a8.887 8.887 0 0 0 6.623 6.623l.343-1.46zm6.264-17.276a7.387 7.387 0 0 1 5.505 5.506l1.46-.343a8.887 8.887 0 0 0-6.622-6.623l-.343 1.46zm-6.607-1.46a8.887 8.887 0 0 0-6.623 6.623l1.46.343a7.387 7.387 0 0 1 5.506-5.506l-.343-1.46z" fill="#CCD0FF"/>
    <path d="m11.436 13.653.713.232a.75.75 0 0 0-.296-.855l-.417.623zm-.774 2.38.713.231-.713-.231zm3.902-2.38-.416-.623a.75.75 0 0 0-.297.855l.713-.232zm.774 2.38-.713.231.713-.231zm-4.405-4.723c0-1.142.925-2.068 2.067-2.068v-1.5a3.567 3.567 0 0 0-3.567 3.568h1.5zM13 9.242c1.142 0 2.067.926 2.067 2.068h1.5A3.567 3.567 0 0 0 13 7.742v1.5zm-1.147 3.788a2.065 2.065 0 0 1-.92-1.72h-1.5c0 1.238.63 2.328 1.586 2.966l.834-1.246zm-1.13.391-.774 2.38 1.426.463.774-2.38-1.427-.463zm1.01 4.837h2.533v-1.5h-2.532v1.5zm3.334-6.948c0 .716-.363 1.348-.92 1.72l.835 1.247a3.565 3.565 0 0 0 1.585-2.967h-1.5zm.984 4.49-.773-2.379-1.427.464.774 2.38 1.426-.464zm-1.785 2.458a1.877 1.877 0 0 0 1.785-2.457l-1.426.463a.377.377 0 0 1-.359.494v1.5zM9.95 15.8a1.877 1.877 0 0 0 1.785 2.457v-1.5a.377.377 0 0 1-.359-.494l-1.426-.463z" fill="#5865F2"/>
</svg>
