<svg width="24" height="24" fill="none" xmlns="http://www.w3.org/2000/svg">
    <path d="M3.297 5.234a2.599 2.599 0 0 1 1.937-1.937 5.544 5.544 0 0 1 2.532 0 2.599 2.599 0 0 1 1.937 1.937c.195.833.195 1.7 0 2.532a2.599 2.599 0 0 1-1.937 1.937c-.833.195-1.7.195-2.532 0a2.599 2.599 0 0 1-1.937-1.937 5.545 5.545 0 0 1 0-2.532z" stroke="#CCD0FF" stroke-width="1.5"/>
    <path d="M3.297 16.234a2.599 2.599 0 0 1 1.937-1.937 5.546 5.546 0 0 1 2.532 0 2.599 2.599 0 0 1 1.937 1.937c.195.833.195 1.7 0 2.532a2.599 2.599 0 0 1-1.937 1.937c-.833.195-1.7.195-2.532 0a2.599 2.599 0 0 1-1.937-1.937 5.545 5.545 0 0 1 0-2.532z" stroke="#5865F2" stroke-width="1.5"/>
    <path d="M14.297 5.234a2.599 2.599 0 0 1 1.937-1.937 5.544 5.544 0 0 1 2.532 0 2.599 2.599 0 0 1 1.937 1.937c.195.833.195 1.7 0 2.532a2.599 2.599 0 0 1-1.937 1.937c-.833.195-1.7.195-2.532 0a2.599 2.599 0 0 1-1.937-1.937 5.546 5.546 0 0 1 0-2.532zM14.297 16.234a2.599 2.599 0 0 1 1.937-1.937 5.546 5.546 0 0 1 2.532 0 2.599 2.599 0 0 1 1.937 1.937c.195.833.195 1.7 0 2.532a2.599 2.599 0 0 1-1.937 1.937c-.833.195-1.7.195-2.532 0a2.599 2.599 0 0 1-1.937-1.937 5.546 5.546 0 0 1 0-2.532z" stroke="#CCD0FF" stroke-width="1.5"/>
</svg>
