<svg width="24" height="24" viewBox="0 0 24 24" fill="none" xmlns="http://www.w3.org/2000/svg">
<path d="M3.68785 9.06772C4.31412 6.39782 6.3988 4.31315 9.0687 3.68687C10.9969 3.23458 13.0035 3.23458 14.9317 3.68687C17.6016 4.31315 19.6863 6.39783 20.3126 9.06773C20.7649 10.9959 20.7649 13.0026 20.3126 14.9307C19.6863 17.6006 17.6016 19.6853 14.9317 20.3116C13.0035 20.7639 10.9969 20.7639 9.0687 20.3116C6.3988 19.6853 4.31412 17.6006 3.68785 14.9307C3.23556 13.0026 3.23556 10.9959 3.68785 9.06772Z" stroke="#CCD0FF" stroke-width="1.5"/>
<path d="M9 9H13M9 15H12M9 12H15" stroke="#5865F2" stroke-width="1.5" stroke-linecap="round"/>
</svg>
