<svg width="24" height="24" fill="none" xmlns="http://www.w3.org/2000/svg">
    <path d="M7.926 6.392a6.218 6.218 0 0 0-4.634 4.634c-.39 1.66-.39 3.388 0 5.048a6.218 6.218 0 0 0 4.634 4.634c1.66.39 3.388.39 5.048 0a6.218 6.218 0 0 0 4.634-4.634M7.926 6.392c1.66-.39 3.388-.39 5.048 0a6.218 6.218 0 0 1 4.634 4.634c.39 1.66.39 3.388 0 5.048M7.926 6.392a6.22 6.22 0 0 0-1.145.39 6.218 6.218 0 0 1 4.245-3.49c1.66-.39 3.388-.39 5.048 0a6.218 6.218 0 0 1 4.634 4.634c.39 1.66.39 3.388 0 5.048a6.219 6.219 0 0 1-3.49 4.245 6.22 6.22 0 0 0 .39-1.145" stroke="#5865F2" stroke-width="1.5"/>
    <path d="M7.926 6.392a6.218 6.218 0 0 0-4.634 4.634c-.39 1.66-.39 3.388 0 5.049a6.218 6.218 0 0 0 4.634 4.633c1.66.39 3.388.39 5.048 0a6.218 6.218 0 0 0 4.634-4.633M7.926 6.392c1.66-.39 3.388-.39 5.048 0a6.218 6.218 0 0 1 4.634 4.634c.39 1.66.39 3.388 0 5.049M7.926 6.392c-.398.094-.781.224-1.145.39m10.827 9.293a6.22 6.22 0 0 1-.39 1.144" stroke="#CCD0FF" stroke-width="1.5"/>
    <path d="m7.5 12 1.89 1.26a2 2 0 0 0 2.22 0L13.5 12" stroke="#5865F2" stroke-width="1.5" stroke-linecap="round"/>
</svg>
