<svg width="24" height="24" fill="none" xmlns="http://www.w3.org/2000/svg">
    <path d="m4.68 14.143.73-.171-.73.171zm0-5.64.73.171-.73-.171zm15.994 0-.73.171.73-.171zm0 5.64-.73-.171.73.171zm-5.177 5.177-.171-.73.171.73zm-5.64 0 .171-.73-.171.73zm0-15.994-.172-.73.172.73zm5.64 0 .171-.73-.17.73zM5.361 15.914l.657-.363-.232-.42-.479.034.054.749zm2.725 2.725.749.054.034-.479-.42-.232-.363.657zM5.41 13.972a11.6 11.6 0 0 1 0-5.298l-1.46-.342a13.1 13.1 0 0 0 0 5.983l1.46-.343zm14.534-5.298a11.599 11.599 0 0 1 0 5.298l1.46.343a13.098 13.098 0 0 0 0-5.983l-1.46.342zm-4.618 9.916a11.599 11.599 0 0 1-5.298 0l-.343 1.46c1.968.462 4.016.462 5.983 0l-.342-1.46zM10.028 4.057a11.6 11.6 0 0 1 5.298 0l.342-1.46a13.1 13.1 0 0 0-5.983 0l.343 1.46zm0 14.533a6.197 6.197 0 0 1-4.618-4.618l-1.46.343a7.696 7.696 0 0 0 5.735 5.735l.343-1.46zm5.64 1.46a7.696 7.696 0 0 0 5.736-5.735l-1.46-.343a6.197 6.197 0 0 1-4.618 4.618l.342 1.46zm-.342-15.993a6.197 6.197 0 0 1 4.617 4.617l1.46-.342a7.696 7.696 0 0 0-5.735-5.736l-.342 1.46zm-5.64-1.46A7.696 7.696 0 0 0 3.95 8.331l1.46.342a6.196 6.196 0 0 1 4.618-4.617l-.343-1.46zM5.306 15.165a3.297 3.297 0 0 0-3.057 3.287h1.5c0-.947.735-1.724 1.665-1.791l-.108-1.496zM2.25 18.453a3.297 3.297 0 0 0 3.297 3.297v-1.5a1.797 1.797 0 0 1-1.797-1.797h-1.5zm3.297 3.297a3.297 3.297 0 0 0 3.288-3.057l-1.497-.108a1.797 1.797 0 0 1-1.791 1.665v1.5zm2.902-3.768a6.203 6.203 0 0 1-2.431-2.43l-1.313.724a7.703 7.703 0 0 0 3.019 3.02l.725-1.314z" fill="#CCD0FF"/>
    <path d="M9.112 9.045a.75.75 0 1 0 0 1.5v-1.5zm3.056 1.5a.75.75 0 0 0 0-1.5v1.5zm-2.038 1.556a.75.75 0 0 0 0 1.5v-1.5zm5.093 1.5a.75.75 0 1 0 0-1.5v1.5zm-6.111-3.056h3.056v-1.5H9.112v1.5zm1.018 3.056h5.093v-1.5H10.13v1.5z" fill="#5865F2"/>
</svg>
